<?xml version="1.0" encoding="UTF-8" standalone="no"?>
<svg
   xmlns:dc="http://purl.org/dc/elements/1.1/"
   xmlns:cc="http://creativecommons.org/ns#"
   xmlns:rdf="http://www.w3.org/1999/02/22-rdf-syntax-ns#"
   xmlns:svg="http://www.w3.org/2000/svg"
   xmlns="http://www.w3.org/2000/svg"
   xmlns:sodipodi="http://sodipodi.sourceforge.net/DTD/sodipodi-0.dtd"
   xmlns:inkscape="http://www.inkscape.org/namespaces/inkscape"
   viewBox="0 0 24 24"
   fill="black"
   width="48px"
   height="48px"
   version="1.1"
   id="svg6"
   sodipodi:docname="base_icon.svg"
   inkscape:version="0.92.4 (5da689c313, 2019-01-14)">
  <metadata
     id="metadata12">
    <rdf:RDF>
      <cc:Work
         rdf:about="">
        <dc:format>image/svg+xml</dc:format>
        <dc:type
           rdf:resource="http://purl.org/dc/dcmitype/StillImage" />
        <dc:title></dc:title>
      </cc:Work>
    </rdf:RDF>
  </metadata>
  <defs
     id="defs10" />
  <sodipodi:namedview
     pagecolor="#6766ff"
     bordercolor="#666666"
     borderopacity="1"
     objecttolerance="10"
     gridtolerance="10"
     guidetolerance="10"
     inkscape:pageopacity="0"
     inkscape:pageshadow="2"
     inkscape:window-width="1920"
     inkscape:window-height="1027"
     id="namedview8"
     showgrid="false"
     inkscape:zoom="16"
     inkscape:cx="15.856012"
     inkscape:cy="24.53716"
     inkscape:window-x="1072"
     inkscape:window-y="362"
     inkscape:window-maximized="1"
     inkscape:current-layer="layer1"
     inkscape:pagecheckerboard="false" />
  <g
     inkscape:groupmode="layer"
     id="layer3"
     inkscape:label="Borders"
     style="display:none">
    <path
       d="m 4,4 h 7 V 2 H 4 C 2.9,2 2,2.9 2,4 v 7 h 2 z"
       id="path862"
       inkscape:connector-curvature="0"
       style="display:inline;fill:#ffffff;fill-opacity:1;stroke:none" />
    <path
       d="m 20,2 h -7 v 2 h 7 v 7 h 2 V 4 C 22,2.9 21.1,2 20,2 Z"
       id="path858"
       inkscape:connector-curvature="0"
       style="display:inline;fill:#ffffff;fill-opacity:1;stroke:none" />
    <path
       d="m 20,20 h -7 v 2 h 7 c 1.1,0 2,-0.9 2,-2 v -7 h -2 z"
       id="path856"
       inkscape:connector-curvature="0"
       style="display:inline;fill:#ffffff;fill-opacity:1;stroke:none" />
    <path
       d="M 4,13 H 2 v 7 c 0,1.1 0.9,2 2,2 h 7 V 20 H 4 Z"
       id="path2"
       inkscape:connector-curvature="0"
       style="display:inline;fill:#ffffff;fill-opacity:1;stroke:none" />
  </g>
  <g
     inkscape:groupmode="layer"
     id="layer4"
     inkscape:label="Shadow">
    <path
       transform="rotate(-45)"
       style="fill:#000000;fill-opacity:0.15686275;stroke:none;stroke-width:0.75;stroke-linecap:square;stroke-miterlimit:4;stroke-dasharray:none;stroke-opacity:1;paint-order:markers stroke fill"
       d="m -8.4852814,16.970563 4.0292216,-0.384194 -0.00203,-0.415444 1.6186067,-4.034309 9.086291,3.094933 0.088388,16.517993 -14.8204793,4.037111 z"
       id="rect1424"
       inkscape:connector-curvature="0"
       sodipodi:nodetypes="cccccccc" />
  </g>
  <g
     inkscape:groupmode="layer"
     id="layer1"
     inkscape:label="Mountain"
     style="display:inline">
    <path
       style="fill:#ffffff;fill-opacity:1;stroke:none;stroke-width:1.5;stroke-miterlimit:4;stroke-dasharray:none;stroke-opacity:1;paint-order:markers stroke fill"
       d="m 20,26 -8,10 h 24 l -6,-8 -4.060547,5.419922 z m -0.720703,3.119141 h 2.609375 v 1.044921 h -1.566406 v 3.667969 c -0.0104,0.855862 -0.703374,1.550782 -1.564454,1.550781 -0.866299,0 -1.566406,-0.700106 -1.566406,-1.566406 0,-0.8663 0.700107,-1.566406 1.566406,-1.566406 0.182654,0 0.359706,0.0383 0.521485,0.0957 z"
       id="path860"
       inkscape:connector-curvature="0"
       transform="scale(0.5)" />
    <path
       style="fill:none;stroke:none"
       d="M 0,0 H 24 V 24 H 0 Z"
       id="path4"
       inkscape:connector-curvature="0" />
  </g>
  <g
     inkscape:groupmode="layer"
     id="layer2"
     inkscape:label="Disc"
     style="display:inline">
    <path
       style="display:inline;fill:#ffffff;fill-opacity:1;stroke:none;stroke-width:0.54000002"
       d="m 12,5.2783205 c -2.9807997,0 -5.4003907,2.418614 -5.4003907,5.3994145 0,1.538901 0.648624,2.925267 1.682617,3.90918 l 1.7333987,-2.166992 2.861328,3.580078 c 0.05546,-0.0091 0.112113,-0.01462 0.166992,-0.02539 l 1.93457,-2.583985 0.833008,1.110352 C 16.792094,13.523154 17.40039,12.170877 17.40039,10.677736 17.40039,7.696935 14.9808,5.278321 12,5.2783205 Z m 0,2.9697265 c 1.3446,0 2.429687,1.0850875 2.429687,2.429688 0,1.3446 -1.085087,2.430664 -2.429687,2.430664 -1.3446,0 -2.4296877,-1.086064 -2.4296877,-2.430664 C 9.5703123,9.3331345 10.6554,8.248047 12,8.248047 Z m 0,1.889649 c -0.297,0 -0.540039,0.243039 -0.540039,0.540039 0,0.297 0.243039,0.540039 0.540039,0.540039 0.297,0 0.540039,-0.243039 0.540039,-0.540039 0,-0.297 -0.243039,-0.540039 -0.540039,-0.540039 z"
       id="path933-9"
       inkscape:connector-curvature="0" />
  </g>
</svg>
